<svg xmlns="http://www.w3.org/2000/svg" width="350" height="350" viewBox="0 0 262.5 262.5"><defs><clipPath id="a"><path d="M2.016 50.387H220v160.941H2.016Zm0 0"></path></clipPath><clipPath id="b"><path d="M175 90h85.273v85H175Zm0 0"></path></clipPath></defs><path d="M94.828 171.094c-2.219 0-4.035 1.808-4.035 4.023 0 2.211 1.816 4.024 4.035 4.024h32.281c2.223 0 4.036-1.813 4.036-4.024 0-2.215-1.813-4.023-4.036-4.023ZM38.54 173.91c0 .453-.087.89-.263 1.309-.172.418-.422.789-.742 1.11-.324.32-.695.566-1.113.741-.422.172-.86.258-1.313.258a3.418 3.418 0 0 1-1.312-6.578 3.422 3.422 0 0 1 2.625 0 3.433 3.433 0 0 1 1.855 1.852c.176.418.262.855.262 1.308ZM25.02 173.91a3.387 3.387 0 0 1-1.004 2.418 3.412 3.412 0 0 1-2.426 1c-.453 0-.89-.086-1.313-.258a3.496 3.496 0 0 1-1.113-.742 3.437 3.437 0 0 1-1.004-2.418 3.417 3.417 0 0 1 1.004-2.418 3.433 3.433 0 0 1 3.738-.742c.422.172.793.422 1.114.742a3.387 3.387 0 0 1 1.004 2.418ZM92.207 82.375c-1.21-1.813-3.832-2.414-5.648-1.207l-36.317 24.14c-1.21.805-1.816 2.012-1.816 3.419 0 1.41.605 2.617 1.816 3.421L86.56 136.29c1.816 1.207 4.437.805 5.648-1.207 1.211-1.809.805-4.426-1.21-5.633l-31.274-20.722 31.273-20.72c1.817-1.206 2.422-3.823 1.211-5.632ZM129.734 135.082c1.211 1.813 3.832 2.414 5.649 1.207l36.316-24.14c1.211-.805 1.817-2.012 1.817-3.422 0-1.407-.606-2.614-1.817-3.418l-36.316-24.141c-1.817-1.207-4.438-.805-5.649 1.207-1.21 1.809-.808 4.426 1.211 5.633l31.27 20.719-31.27 20.722c-1.816 1.207-2.422 3.824-1.21 5.633ZM115.207 77.547l-16.14 60.351c-.606 2.215.808 4.426 2.824 4.829.402 0 .605.203 1.007.203 1.817 0 3.43-1.207 3.836-3.02l16.141-60.351c.605-2.215-.809-4.43-2.824-4.832-2.02-.602-4.239.605-4.844 2.82Zm0 0"></path><g clip-path="url(#a)"><path d="M94.828 203.281H82.723c-2.22 0-4.035 1.813-4.035 4.024 0 2.215 1.816 4.023 4.035 4.023h56.492c2.222 0 4.035-1.808 4.035-4.023 0-2.211-1.813-4.024-4.035-4.024h-12.106v-12.07h80.704c5.246 0 9.687-3.418 11.3-8.047h-4.238c-1.816 0-3.43-.2-5.043-.805-.605.403-1.414.805-2.219.805H14.125c-2.219 0-4.035-1.812-4.035-4.023v-12.07h170.687l-.605-.606c-2.016-2.012-3.629-4.625-4.438-7.442H10.09V62.457c0-2.215 1.816-4.023 4.035-4.023h193.688c2.222 0 4.035 1.808 4.035 4.023v20.52c1.011-.2 2.02-.403 3.23-.403h4.84V62.457c0-6.64-5.445-12.07-12.106-12.07H14.125c-6.656 0-12.105 5.43-12.105 12.07v116.684c0 6.64 5.449 12.07 12.105 12.07h80.703Zm8.07-12.07h16.141v12.07H102.9Zm0 0"></path></g><g clip-path="url(#b)"><path d="M252.402 120.195c-.402-1.007-.804-1.812-1.21-2.816 2.624-3.824 2.218-9.055-1.212-12.473l-4.035-4.023c-1.816-1.813-4.437-2.817-7.058-2.817-2.02 0-3.836.602-5.45 1.61-.808-.403-1.816-.805-2.824-1.207-1.008-4.63-5.043-7.848-9.683-7.848h-5.653c-4.84 0-8.875 3.422-9.683 7.848-1.008.402-1.817.804-2.824 1.207-1.614-1.008-3.43-1.61-5.446-1.61-2.625 0-5.246 1.004-7.062 2.817l-4.035 4.023c-3.43 3.418-3.832 8.649-1.211 12.473-.403.805-.809 1.808-1.211 2.816-4.64 1.004-7.868 5.028-7.868 9.657v5.632c0 4.828 3.43 8.852 7.868 9.657.402 1.007.808 1.812 1.21 2.816-1.007 1.61-1.613 3.422-1.613 5.434 0 2.613 1.008 5.23 2.825 7.039l4.035 4.023c1.816 1.813 4.437 2.817 7.062 2.817 2.016 0 3.832-.602 5.446-1.61.808.403 1.816.805 2.824 1.207 1.011 4.63 5.047 7.848 9.683 7.848h5.653c4.84 0 8.875-3.422 9.683-7.848 1.008-.402 1.817-.804 2.825-1.207 1.613 1.008 3.43 1.61 5.449 1.61 2.62 0 5.242-1.004 7.058-2.817l4.035-4.023c1.817-1.809 2.825-4.426 2.825-7.04 0-2.011-.606-3.824-1.614-5.433.407-.805.809-1.809 1.211-2.816 4.641-1.004 7.868-5.028 7.868-9.657v-5.632c0-4.63-3.43-8.653-7.868-9.657Zm-.203 15.493a1.803 1.803 0 0 1-1.812 1.808h-4.239c-.808 4.426-2.421 8.25-4.843 11.668l3.027 3.02c.809.804.809 2.011 0 2.613l-4.035 4.023c-.402.403-.805.606-1.41.606-.606 0-1.012-.203-1.414-.606l-3.028-3.015c-3.43 2.414-7.465 4.222-11.699 4.828v4.222a1.807 1.807 0 0 1-1.816 1.813h-5.653a1.804 1.804 0 0 1-1.812-1.813v-3.82c-4.442-.805-8.274-2.414-11.703-4.828l-3.43 2.816c-.402.403-.809.602-1.414.602-.606 0-.805-.2-1.211-.602L191.672 155c-.805-.805-.805-2.012 0-2.617l3.027-3.016c-2.422-3.422-4.234-7.445-4.84-11.668h-4.238a1.807 1.807 0 0 1-1.816-1.812v-5.633c0-1.008.808-1.813 1.816-1.813h4.035c.809-4.425 2.422-8.246 4.844-11.668l-2.828-3.418c-.805-.804-.805-2.011 0-2.617l4.035-4.023c.406-.403.809-.602 1.414-.602.606 0 1.008.2 1.414.602l3.024 3.02c3.43-2.415 7.464-4.227 11.703-4.829v-4.226c0-1.004.808-1.809 1.816-1.809h5.649c1.007 0 1.816.805 1.816 1.809v4.023c4.437.805 8.273 2.414 11.703 4.828l3.024-3.015c.406-.403.808-.606 1.414-.606.605 0 1.007.203 1.41.606l4.035 4.023c.809.805.809 2.012 0 2.613l-3.024 3.02c2.422 3.418 4.235 7.441 4.84 11.668h4.239c1.007 0 1.816.805 1.816 1.808v6.04Zm0 0"></path></g><path d="M217.902 116.773c-8.879 0-16.14 7.243-16.14 16.098 0 8.852 7.261 16.094 16.14 16.094 8.88 0 16.141-7.242 16.141-16.094 0-8.855-7.262-16.098-16.14-16.098Zm0 24.145c-4.437 0-8.07-3.621-8.07-8.047 0-4.43 3.633-8.05 8.07-8.05 4.438 0 8.07 3.62 8.07 8.05 0 4.426-3.632 8.047-8.07 8.047Zm0 0"></path></svg>