<svg xmlns="http://www.w3.org/2000/svg" width="350" height="350" viewBox="0 0 262.5 262.5"><defs><clipPath id="a"><path d="M43.133 6.145h175.914V129H43.133Zm0 0"></path></clipPath><clipPath id="b"><path d="M70 122h122v134.168H70Zm0 0"></path></clipPath></defs><g clip-path="url(#a)"><path d="M53.629 6.145h154.973c5.757 0 10.468 4.714 10.468 10.472v101.508c0 5.762-4.71 10.477-10.468 10.477H53.629c-5.762 0-10.473-4.72-10.473-10.477V16.617c0-2.875 1.176-5.492 3.074-7.387-.011-.183 6.907-2.675 7.399-3.085Zm154.973 5.859H53.629a4.625 4.625 0 0 0-4.613 4.613v101.508c0 2.54 2.07 4.613 4.613 4.613h154.973a4.627 4.627 0 0 0 4.613-4.613V16.617c0-2.472-2.078-4.613-4.613-4.613Zm0 0"></path></g><g clip-path="url(#b)"><path d="M191.645 125.668a2.93 2.93 0 0 0-5.86 0v120.71a3.913 3.913 0 0 1-1.156 2.774 3.922 3.922 0 0 1-2.774 1.157H80.371a3.943 3.943 0 0 1-3.93-3.93V125.668a2.928 2.928 0 1 0-5.855 0v120.71c0 5.384 4.402 9.79 9.785 9.79h101.484a9.778 9.778 0 0 0 6.918-2.871 9.778 9.778 0 0 0 2.872-6.918Zm0 0"></path></g><path d="M71.457 23.29h119.316a2.93 2.93 0 0 1 2.93 2.929v52.125a2.93 2.93 0 0 1-2.93 2.93H71.457a2.93 2.93 0 0 1-2.93-2.93V26.219a2.93 2.93 0 0 1 2.93-2.93Zm116.387 5.858H74.387v46.266h113.457ZM75.742 91.016h37.715a2.93 2.93 0 0 1 2.93 2.93v14.402a2.932 2.932 0 0 1-2.93 2.933h-8.445c-1.309 4.637-5.551 7.887-10.41 7.887-4.86 0-9.118-3.262-10.415-7.887h-8.445a2.932 2.932 0 0 1-2.93-2.933V93.945a2.93 2.93 0 0 1 2.93-2.93Zm34.785 5.863H78.672v8.539h8.043a2.93 2.93 0 0 1 2.93 2.93 4.952 4.952 0 0 0 4.957 4.96 4.949 4.949 0 0 0 4.953-4.96 2.93 2.93 0 0 1 2.93-2.93h8.042ZM134.027 96.676h48.004c4.063 0 7.383 3.324 7.383 7.386 0 4.07-3.316 7.391-7.383 7.391h-48.004c-4.066 0-7.382-3.32-7.382-7.39s3.316-7.387 7.382-7.387Zm48.004 5.86h-48.004c-.832 0-1.527.694-1.527 1.526a1.54 1.54 0 0 0 1.527 1.528h48.004c.832 0 1.524-.692 1.524-1.528 0-.84-.688-1.527-1.524-1.527ZM108.082 169.434h46.063c3.035 0 5.792 1.238 7.789 3.234a10.993 10.993 0 0 1 3.234 7.789v17.992c0 6.067-4.961 11.028-11.023 11.028h-46.063c-6.062 0-11.023-4.965-11.023-11.028v-17.992c0-3.035 1.242-5.793 3.238-7.789a10.984 10.984 0 0 1 7.785-3.234Zm46.063 5.859h-46.063a5.151 5.151 0 0 0-3.644 1.52 5.145 5.145 0 0 0-1.52 3.644v17.992c0 2.844 2.32 5.168 5.164 5.168h46.063a5.176 5.176 0 0 0 5.164-5.168v-17.992a5.145 5.145 0 0 0-1.52-3.644 5.138 5.138 0 0 0-3.644-1.52Zm0 0"></path></svg>