<svg xmlns="http://www.w3.org/2000/svg" width="350" height="350" viewBox="0 0 262.5 262.5"><defs><clipPath id="a"><path d="M31 6.402h200v249.274H31Zm0 0"></path></clipPath></defs><g clip-path="url(#a)"><path d="M86.316 6.402c-16.148 0-31.43 15.825-31.43 32.516v46.875l10.837-12.14V38.917c0-10.73 10.406-21.676 20.593-21.676h89.934c10.563 0 19.5 8.938 19.5 19.504v36.906l10.836 12.141V36.746c0-16.473-13.867-30.344-30.336-30.344Zm-4.34 27.094c-2.98 0-5.417 2.441-5.417 5.422v21.676l10.836-10.84v-5.418h86.683v5.418l10.836 10.84V38.918c0-2.98-2.437-5.422-5.418-5.422Zm-1.331 39.746-49.282 55.09 49.282 55.09 8.082-7.219-42.825-47.871 42.825-47.875Zm100.187 0-8.086 7.215 42.824 47.875-42.824 47.871 8.086 7.219 49.277-55.09ZM54.887 170.867v52.297c0 20.156 18.91 32.512 32.508 32.512h88.855c16.469 0 30.336-13.867 30.336-30.344v-54.465l-10.836 12.14v42.325c0 10.566-8.938 19.508-19.5 19.508H87.395c-7.368 0-21.672-7.64-21.672-21.676v-40.156Zm21.672 25.2v21.68c0 2.98 2.437 5.417 5.418 5.417h97.52c2.98 0 5.417-2.437 5.417-5.418v-21.68l-10.836 10.84v5.418H87.395v-5.418Zm54.18 29.804a8.3 8.3 0 0 0-1.587.156 8.399 8.399 0 0 0-1.527.465c-.492.203-.96.453-1.402.75a8.227 8.227 0 0 0-2.242 2.242 8.1 8.1 0 0 0-.75 1.407c-.208.492-.36 1-.465 1.523a8.332 8.332 0 0 0-.157 1.586 8.102 8.102 0 0 0 1.371 4.516c.297.445.633.855 1.012 1.234a8.076 8.076 0 0 0 4.16 2.223c.524.105 1.051.156 1.586.156.532 0 1.063-.05 1.586-.156a7.967 7.967 0 0 0 1.524-.461 8.19 8.19 0 0 0 2.636-1.762 8.04 8.04 0 0 0 1.008-1.234c.297-.442.547-.91.754-1.403a8.387 8.387 0 0 0 .461-1.527c.106-.524.156-1.05.156-1.586 0-.531-.05-1.063-.156-1.586a8.256 8.256 0 0 0-.46-1.523 8.201 8.201 0 0 0-1.762-2.637 8.065 8.065 0 0 0-1.235-1.012 7.927 7.927 0 0 0-1.402-.75c-.493-.203-1-.36-1.524-.465a8.332 8.332 0 0 0-1.586-.156Zm0 0"></path></g></svg>